<svg width="32" height="32" viewBox="0 0 32 32" fill="none" xmlns="http://www.w3.org/2000/svg">
  <defs>
    <linearGradient id="grad1" x1="0%" y1="0%" x2="100%" y2="100%">
      <stop offset="0%" style="stop-color:#2563eb;stop-opacity:1" />
      <stop offset="100%" style="stop-color:#1e40af;stop-opacity:1" />
    </linearGradient>
  </defs>

  <!-- Shield badge -->
  <path d="M 16 2 L 26 6 L 26 16 Q 26 24 16 29 Q 6 24 6 16 L 6 6 Z" fill="url(#grad1)"/>
  <path d="M 16 2 L 26 6 L 26 16 Q 26 24 16 29 Q 6 24 6 16 L 6 6 Z"
        stroke="white" stroke-width="0.5" fill="none" opacity="0.3"/>

  <!-- Divider -->
  <line x1="16" y1="7" x2="16" y2="26" stroke="white" stroke-width="0.75" opacity="0.2"/>

  <!-- Microscope -->
  <rect x="9.5" y="9" width="1.5" height="1" rx="0.25" fill="white"/>
  <rect x="9.875" y="10" width="0.75" height="3" fill="white"/>
  <circle cx="10.25" cy="13.25" r="1" fill="white"/>
  <rect x="8.5" y="14" width="3.5" height="0.75" rx="0.15" fill="white"/>
  <rect x="9.875" y="14.75" width="0.75" height="4" fill="white"/>
  <ellipse cx="10.25" cy="19.25" rx="2.5" ry="0.75" fill="white"/>

  <!-- Neural network -->
  <!-- Layer 1 -->
  <circle cx="19" cy="10" r="1" fill="white"/>
  <circle cx="23" cy="10" r="1" fill="white"/>

  <!-- Layer 2 -->
  <circle cx="17.5" cy="14" r="1" fill="white"/>
  <circle cx="21" cy="14" r="1" fill="white"/>
  <circle cx="24.5" cy="14" r="1" fill="white"/>

  <!-- Layer 3 -->
  <circle cx="19" cy="18" r="1" fill="white"/>
  <circle cx="23" cy="18" r="1" fill="white"/>

  <!-- Connections -->
  <line x1="19" y1="11" x2="17.5" y2="13" stroke="white" stroke-width="0.5" opacity="0.5"/>
  <line x1="19" y1="11" x2="21" y2="13" stroke="white" stroke-width="0.5" opacity="0.5"/>
  <line x1="19" y1="11" x2="24.5" y2="13" stroke="white" stroke-width="0.5" opacity="0.5"/>
  <line x1="23" y1="11" x2="17.5" y2="13" stroke="white" stroke-width="0.5" opacity="0.5"/>
  <line x1="23" y1="11" x2="21" y2="13" stroke="white" stroke-width="0.5" opacity="0.5"/>
  <line x1="23" y1="11" x2="24.5" y2="13" stroke="white" stroke-width="0.5" opacity="0.5"/>

  <line x1="17.5" y1="15" x2="19" y2="17" stroke="white" stroke-width="0.5" opacity="0.5"/>
  <line x1="17.5" y1="15" x2="23" y2="17" stroke="white" stroke-width="0.5" opacity="0.5"/>
  <line x1="21" y1="15" x2="19" y2="17" stroke="white" stroke-width="0.5" opacity="0.5"/>
  <line x1="21" y1="15" x2="23" y2="17" stroke="white" stroke-width="0.5" opacity="0.5"/>
  <line x1="24.5" y1="15" x2="19" y2="17" stroke="white" stroke-width="0.5" opacity="0.5"/>
  <line x1="24.5" y1="15" x2="23" y2="17" stroke="white" stroke-width="0.5" opacity="0.5"/>
</svg>
